<?xml version="1.0" encoding="UTF-8" standalone="no"?>
<!-- Created with Inkscape (http://www.inkscape.org/) -->

<svg
   width="210.175"
   height="150.00101"
   viewBox="0 0 55.608802 39.687766"
   version="1.1"
   id="svg1"
   inkscape:version="1.4.2 (f4327f4, 2025-05-13)"
   sodipodi:docname="about_icon.svg"
   xmlns:inkscape="http://www.inkscape.org/namespaces/inkscape"
   xmlns:sodipodi="http://sodipodi.sourceforge.net/DTD/sodipodi-0.dtd"
   xmlns="http://www.w3.org/2000/svg"
   xmlns:svg="http://www.w3.org/2000/svg">
  <sodipodi:namedview
     id="namedview1"
     pagecolor="#000000"
     bordercolor="#000000"
     borderopacity="0.25"
     inkscape:showpageshadow="2"
     inkscape:pageopacity="0.0"
     inkscape:pagecheckerboard="0"
     inkscape:deskcolor="#d1d1d1"
     inkscape:document-units="px"
     inkscape:zoom="1.9729351"
     inkscape:cx="57.781932"
     inkscape:cy="118.35159"
     inkscape:window-width="1920"
     inkscape:window-height="1001"
     inkscape:window-x="-9"
     inkscape:window-y="-9"
     inkscape:window-maximized="1"
     inkscape:current-layer="layer1" />
  <defs
     id="defs1">
    <rect
       x="518.96826"
       y="2160"
       width="526.33502"
       height="414.77054"
       id="rect93" />
    <rect
       x="518.96826"
       y="2160"
       width="526.33502"
       height="414.77054"
       id="rect94" />
  </defs>
  <g
     inkscape:label="Layer 1"
     inkscape:groupmode="layer"
     id="layer1">
    <g
       id="g92"
       transform="matrix(0.41830809,-0.41830809,0.41830966,0.41830966,-294.39752,-166.44217)"
       style="display:inline">
      <path
         style="font-weight:800;font-size:165.333px;font-family:Rubik;-inkscape-font-specification:'Rubik Ultra-Bold';text-align:justify;white-space:pre;fill:#ffffff"
         d="m 556.99534,2272.762 q -1.32267,0 -2.31466,-0.992 -0.992,-0.992 -0.992,-2.1493 0,-0.6614 0,-1.3227 0,-0.6613 0.16533,-1.3227 1.15733,-5.1253 4.13333,-9.424 2.97599,-4.4639 6.61332,-8.2666 3.80265,-3.8027 7.27465,-6.944 3.47199,-3.3066 5.78665,-6.2826 2.48,-3.1414 2.48,-5.952 0.16533,-2.6454 -1.15733,-4.464 -1.15733,-1.984 -3.30666,-2.976 -1.984,-0.992 -4.62933,-0.992 -5.78665,0 -8.59731,2.6453 -2.81066,2.48 -4.13333,6.6133 -0.66133,1.8187 -1.81866,2.976 -1.15733,1.1574 -3.80266,1.1574 H 527.2354 q -1.65333,0 -2.81066,-1.3227 -1.15733,-1.3227 -1.15733,-3.472 0.16533,-6.448 3.30666,-12.7306 3.14132,-6.448 9.25865,-11.904 6.28265,-5.456 15.5413,-8.5973 9.42398,-3.3067 22.15462,-3.3067 13.39197,0 21.98929,3.1413 8.59731,3.1414 13.39197,8.1014 4.95999,4.7946 6.94398,10.0853 1.984,5.2906 1.81867,9.5893 0,5.6213 -1.984,10.2506 -1.81866,4.6294 -4.79466,8.5973 -2.97599,3.8027 -6.28265,7.44 -3.30666,3.472 -6.28265,6.944 -2.976,3.3067 -5.12533,6.944 -0.33066,0.8267 -0.82666,1.6533 -0.33067,0.6614 -0.66133,1.6534 -1.32267,2.3146 -2.48,3.472 -0.992,1.1573 -2.97599,1.1573 z m 0.992,38.3572 q -1.81867,0 -3.14133,-1.1573 -1.15733,-1.3227 -1.15733,-3.1413 v -22.4853 q 0,-1.8187 1.15733,-3.1413 1.32266,-1.3227 3.14133,-1.3227 h 25.79194 q 1.65333,0 2.976,1.3227 1.32266,1.3226 1.32266,3.1413 v 22.4853 q 0,1.8186 -1.32266,3.1413 -1.32267,1.1573 -2.976,1.1573 z"
         id="text90"
         transform="matrix(0.14035031,-0.08103129,0.08103129,0.14035032,-139.59901,326.68652)"
         aria-label="?" />
      <path
         id="path90"
         style="fill:#ffffff;stroke-width:0.191375"
         d="m 156.9685,297.65831 c -1.0003,0.027 -2.00961,0.2977 -2.94039,0.83509 l -15.22181,8.78809 c -2.97849,1.71963 -3.99185,5.50214 -2.27221,8.48062 l 10.66498,18.47226 c 1.71963,2.97849 5.50214,3.99183 8.48062,2.27221 l 15.22129,-8.78809 c 2.97849,-1.71962 3.99236,-5.50162 2.27273,-8.48011 l -10.66498,-18.47277 c -1.18224,-2.04771 -3.33956,-3.16674 -5.54023,-3.1073 z m -1.48673,7.71064 c 0.47406,0.01 0.91229,0.072 1.31413,0.18706 0.81103,0.20265 1.48094,0.52152 2.0097,0.95654 0.52877,0.435 0.91445,0.88296 1.15755,1.3441 0.34059,0.58992 0.54732,1.18818 0.6196,1.7942 0.0896,0.59601 0.0983,1.19232 0.0264,1.78904 -0.0819,0.57938 -0.18601,1.15996 -0.31265,1.74202 -0.13664,0.56471 -0.25617,1.1193 -0.35811,1.66398 -0.11197,0.52732 -0.17053,1.04713 -0.1757,1.55907 0.0154,0.10679 0.0221,0.21858 0.0202,0.33538 0.005,0.0894 0.021,0.19626 0.0465,0.3204 0.001,0.32305 -0.0237,0.58046 -0.0749,0.77204 -0.034,0.18156 -0.1551,0.33248 -0.36329,0.45269 l -4.60643,2.65979 c -0.13881,0.0801 -0.29055,0.0977 -0.45476,0.0537 -0.1642,-0.044 -0.28127,-0.12659 -0.3514,-0.24805 l -0.1204,-0.20825 c -0.0401,-0.0694 -0.0713,-0.14383 -0.0941,-0.22325 -0.18909,-0.60798 -0.25754,-1.22736 -0.20568,-1.8588 0.0419,-0.64878 0.13811,-1.28328 0.28939,-1.90272 0.16867,-0.62946 0.34016,-1.21387 0.51418,-1.7539 0.16402,-0.55738 0.27743,-1.0626 0.34003,-1.51515 0.0699,-0.47993 0.0194,-0.86725 -0.15089,-1.16221 -0.14293,-0.28762 -0.33857,-0.48666 -0.58756,-0.59738 -0.24167,-0.13808 -0.50551,-0.19407 -0.79117,-0.16795 -0.26831,0.0161 -0.54095,0.10434 -0.81855,0.26459 -0.60728,0.3506 -0.97843,0.74995 -1.11311,1.19786 -0.1447,0.43055 -0.16125,0.90254 -0.0496,1.41645 0.0408,0.23093 0.0353,0.44198 -0.016,0.63355 -0.0513,0.19158 -0.21539,0.36786 -0.493,0.52814 l -4.00802,2.31407 c -0.17351,0.10017 -0.36116,0.11573 -0.56276,0.047 -0.20159,-0.0687 -0.36741,-0.21576 -0.49764,-0.44132 -0.37333,-0.68668 -0.58565,-1.4551 -0.63665,-2.30476 -0.061,-0.867 0.0643,-1.77187 0.37568,-2.71508 0.32875,-0.95324 0.88371,-1.87509 1.66502,-2.76573 0.78863,-0.918 1.85088,-1.76287 3.18688,-2.53421 1.4054,-0.81141 2.6545,-1.31254 3.74706,-1.50378 0.54629,-0.0956 1.05608,-0.13889 1.53014,-0.12919 z m 4.51704,14.16606 c 0.0757,-3.5e-4 0.15457,0.0106 0.23668,0.0326 0.21894,0.0587 0.38331,0.18328 0.49351,0.37414 l 2.0438,3.53984 c 0.11019,0.19086 0.13566,0.39549 0.077,0.61443 -0.0687,0.20159 -0.18978,0.35251 -0.36329,0.45268 l -4.0597,2.34405 c -0.19086,0.11018 -0.39104,0.14466 -0.59996,0.10335 -0.2016,-0.0687 -0.35748,-0.19827 -0.46767,-0.38912 l -2.04329,-3.53932 c -0.11019,-0.19086 -0.14467,-0.39104 -0.10335,-0.59997 0.0587,-0.21894 0.18328,-0.38332 0.37413,-0.49351 l 4.06022,-2.34404 c 0.10844,-0.0626 0.22573,-0.0945 0.35192,-0.0951 z"
         transform="matrix(1.1952912,1.1952868,-1.1952912,1.1952868,354.4315,40.75375)" />
      <path
         style="font-weight:800;font-size:128px;font-family:Rubik;-inkscape-font-specification:'Rubik Ultra-Bold';text-align:justify;white-space:pre;fill:#ffffff"
         d="m 548.40875,2247.2998 q -1.024,0 -1.792,-0.768 -0.768,-0.768 -0.768,-1.664 0,-0.512 0,-1.024 0,-0.512 0.128,-1.024 0.896,-3.968 3.2,-7.296 2.304,-3.456 5.12,-6.4 2.944,-2.944 5.632,-5.376 2.688,-2.56 4.48,-4.864 1.92,-2.432 1.92,-4.608 0.128,-2.048 -0.896,-3.456 -0.896,-1.536 -2.56,-2.304 -1.536,-0.768 -3.584,-0.768 -4.48,0 -6.656,2.048 -2.176,1.92 -3.2,5.12 -0.512,1.408 -1.408,2.304 -0.896,0.896 -2.944,0.896 h -19.712 q -1.28,0 -2.176,-1.024 -0.896,-1.024 -0.896,-2.688 0.128,-4.992 2.56,-9.856 2.432,-4.992 7.168,-9.216 4.864,-4.224 12.032,-6.656 7.296,-2.56 17.152,-2.56 10.368,0 17.024,2.432 6.656,2.432 10.368,6.272 3.84,3.712 5.376,7.808 1.536,4.096 1.408,7.424 0,4.352 -1.536,7.936 -1.408,3.584 -3.712,6.656 -2.304,2.944 -4.864,5.76 -2.56,2.688 -4.864,5.376 -2.304,2.56 -3.968,5.376 -0.256,0.64 -0.64,1.28 -0.256,0.512 -0.512,1.28 -1.024,1.792 -1.92,2.688 -0.768,0.896 -2.304,0.896 z m 0.768,29.696 q -1.408,0 -2.432,-0.896 -0.896,-1.024 -0.896,-2.432 v -17.408 q 0,-1.408 0.896,-2.432 1.024,-1.024 2.432,-1.024 h 19.968 q 1.28,0 2.304,1.024 1.024,1.024 1.024,2.432 v 17.408 q 0,1.408 -1.024,2.432 -1.024,0.896 -2.304,0.896 z"
         id="text92"
         transform="matrix(0.13229149,0.22913571,-0.22913607,0.13229185,636.19297,197.0021)"
         aria-label="?" />
    </g>
  </g>
</svg>
