<?xml version="1.0" encoding="UTF-8" standalone="no"?>
<!-- Created with Inkscape (http://www.inkscape.org/) -->

<svg
   width="144.808"
   height="150"
   viewBox="0 0 38.313782 39.6875"
   version="1.1"
   id="svg1"
   inkscape:version="1.4.2 (f4327f4, 2025-05-13)"
   sodipodi:docname="contact_icon.svg"
   xmlns:inkscape="http://www.inkscape.org/namespaces/inkscape"
   xmlns:sodipodi="http://sodipodi.sourceforge.net/DTD/sodipodi-0.dtd"
   xmlns="http://www.w3.org/2000/svg"
   xmlns:svg="http://www.w3.org/2000/svg">
  <sodipodi:namedview
     id="namedview1"
     pagecolor="#ffffff"
     bordercolor="#000000"
     borderopacity="0.25"
     inkscape:showpageshadow="2"
     inkscape:pageopacity="0.0"
     inkscape:pagecheckerboard="0"
     inkscape:deskcolor="#d1d1d1"
     inkscape:document-units="px"
     inkscape:zoom="0.69753788"
     inkscape:cx="184.21939"
     inkscape:cy="326.14716"
     inkscape:window-width="1920"
     inkscape:window-height="1001"
     inkscape:window-x="-9"
     inkscape:window-y="-9"
     inkscape:window-maximized="1"
     inkscape:current-layer="layer1" />
  <defs
     id="defs1" />
  <g
     inkscape:label="Layer 1"
     inkscape:groupmode="layer"
     id="layer1">
    <path
       id="path97"
       style="display:inline;fill:#003380;fill-opacity:1;stroke-width:0.191375"
       d="M 3.1092136,9.6252924 C 0.13072356,11.344922 -0.88241644,15.127392 0.83722356,18.105872 L 11.502204,36.578162 c 1.71963,2.97849 5.50166,3.99187 8.48014,2.27225 l 15.22142,-8.7881 c 2.97849,-1.71962 3.99258,-5.50145 2.27295,-8.47994 L 26.811474,3.1096324 c -1.18224,-2.04771 -3.33951,-3.16681999 -5.54018,-3.10737999 -1.0003,0.027 -2.00917,0.29775 -2.93995,0.83514 z M 13.720114,10.884542 c 1.67177,-0.9651996 3.16779,-1.5747096 4.48777,-1.8284296 1.31999,-0.25371 2.49731,-0.2295 3.53203,0.0725 1.04937,0.29357 1.97755,0.78365 2.78504,1.4710696 0.80749,0.68741 1.53458,1.48968 2.18137,2.40675 0.17327,0.23237 0.35291,0.50998 0.53918,0.8326 0.1778,0.30796 0.35269,0.62765 0.52429,0.95874 0.18627,0.32262 0.34832,0.62008 0.48605,0.89251 0.37934,0.75863 0.52674,1.50458 0.44179,2.23798 -0.0703,0.72493 -0.30806,1.38033 -0.71292,1.96603 -0.39866,0.56256 -0.87633,1.00479 -1.43359,1.32653 -0.48393,0.2794 -0.95344,0.48207 -1.40865,0.60802 -0.44055,0.11748 -0.83539,0.17899 -1.18402,0.18474 -0.3571,-0.009 -0.65533,-0.0516 -0.89511,-0.12825 -0.001,0.23525 -0.0421,0.50285 -0.12263,0.80356 -0.0806,0.30071 -0.27327,0.62743 -0.57835,0.97955 -0.30508,0.35211 -0.8023,0.72695 -1.49154,1.12488 -1.09985,0.635 -2.19476,0.71998 -3.28482,0.25435 -1.08385,-0.48875 -2.01103,-1.40066 -2.7815,-2.73515 -0.77893,-1.34915 -1.11979,-2.59897 -1.022,-3.7504 0.10398,-1.17455 0.69879,-2.07542 1.78397,-2.70195 0.55726,-0.32173 1.0438,-0.4949 1.45956,-0.51986 0.43042,-0.0334 0.85611,0.0434 1.27701,0.23058 l -0.11446,-0.19826 c -0.0931,-0.16131 -0.11504,-0.33448 -0.0654,-0.51953 0.0496,-0.18505 0.15514,-0.32408 0.31645,-0.41721 l 1.58381,-0.91442 c 0.16131,-0.0931 0.33449,-0.11503 0.51954,-0.0654 0.18505,0.0496 0.32407,0.15514 0.41721,0.31645 l 2.45127,4.24573 c 0.2032,0.35195 0.44047,0.57632 0.71185,0.67383 0.27138,0.0975 0.56838,0.0531 0.891,-0.13313 0.21997,-0.127 0.37024,-0.27246 0.45142,-0.43665 0.0959,-0.17266 0.12663,-0.35628 0.0922,-0.55146 -0.0198,-0.20364 -0.0931,-0.41553 -0.22012,-0.6355 l -0.66042,-1.14389 c -0.19701,-0.37509 -0.41604,-0.73769 -0.65704,-1.08737 -0.67052,-1.05979 -1.39511,-1.82417 -2.17433,-2.29328 -0.77921,-0.4691 -1.69473,-0.61541 -2.74621,-0.4385 -1.05149,0.17691 -2.33254,0.70165 -3.843,1.57372 -1.27583,0.7366 -2.19103,1.53858 -2.74586,2.40639 -0.55483,0.86781 -0.83447,1.77254 -0.83868,2.71351 0.0104,0.93251 0.21832,1.8681 0.62367,2.80725 0.1146,0.26624 0.29619,0.63109 0.54399,1.09416 l 0.79995,1.38555 c 0.27713,0.44614 0.5107,0.80036 0.70089,1.06205 0.99105,1.34401 2.19262,2.15561 3.6053,2.43497 1.41267,0.27936 3.13113,-0.16502 5.15486,-1.33342 0.80656,-0.46567 1.4346,-0.86761 1.88467,-1.20567 0.45007,-0.33806 0.7944,-0.67365 1.03236,-1.00657 0.26108,-0.32671 0.47796,-0.69646 0.65045,-1.10889 0.0936,-0.21045 0.17858,-0.36727 0.25584,-0.47053 0.0688,-0.11792 0.17684,-0.21905 0.32349,-0.30372 l 2.15576,-1.24463 c 0.16131,-0.0931 0.33448,-0.11503 0.51953,-0.0654 0.19125,0.0265 0.33447,0.13927 0.42987,0.33838 0.0339,0.0587 0.0531,0.12561 0.0577,0.2012 -0.004,0.0609 -0.0111,0.13346 -0.0212,0.21752 -0.12894,0.75879 -0.39974,1.56037 -0.81185,2.40444 -0.40365,0.85874 -1.00889,1.70693 -1.8159,2.54435 -0.79234,0.82897 -1.83361,1.61597 -3.1241,2.36103 -1.97974,1.143 -3.79398,1.76011 -5.44234,1.85146 -1.6337,0.0829 -3.08611,-0.23222 -4.35789,-0.94488 -1.26559,-0.73578 -2.33393,-1.72236 -3.20478,-2.95978 -0.1332,-0.19684 -0.3042,-0.45947 -0.5136,-0.78829 l -0.62244,-1.0781 -0.6221904,-1.07766 c -0.18006,-0.34575 -0.31807,-0.61834 -0.41347,-0.81745 -0.42621,-0.90755 -0.70159,-1.89194 -0.82604,-2.95416 -0.12445,-1.06222 -0.041,-2.13695 0.2503,-3.22412 0.28284,-1.10184 0.81478,-2.16192 1.5957704,-3.17986 0.781,-1.01794 1.86088,-1.92468 3.23936,-2.72055 z m 4.15272,7.19272 c -0.39595,0.2286 -0.64971,0.55124 -0.76127,0.9676 -0.12004,0.4017 0.0277,0.96163 0.44257,1.6802 0.27093,0.46928 0.54546,0.80953 0.82364,1.02042 0.26972,0.19623 0.53676,0.28659 0.80134,0.27071 0.27923,-0.0244 0.55081,-0.11275 0.81478,-0.26515 0.42527,-0.24553 0.69049,-0.5651 0.79586,-0.95834 0.12003,-0.4017 -0.0273,-0.96189 -0.44213,-1.68046 -0.41487,-0.71857 -0.82636,-1.12622 -1.23426,-1.22312 -0.4017,-0.12003 -0.81526,-0.0574 -1.24053,0.18814 z" />
  </g>
</svg>
